<svg xmlns="http://www.w3.org/2000/svg" viewBox="0 0 942.31 942.31"><defs><style>.cls-1{fill:#371544;}.cls-2{fill:#f39f5a;}.cls-3{fill:#ae445a;}</style></defs><g id="Layer_2" data-name="Layer 2"><g id="Layer_1-2" data-name="Layer 1"><rect class="cls-1" width="942.31" height="942.31" rx="45.53"/><polygon class="cls-2" points="306.81 325.47 258.9 407.88 199.34 305.6 247.31 223.19 306.81 325.47"/><polygon class="cls-2" points="839.15 719.14 263.05 719.14 310.39 637.87 423.88 442.93 471.85 525.34 406.34 637.87 791.8 637.87 839.15 719.14"/><polygon class="cls-2" points="599.07 306.72 519.83 442.87 471.85 360.46 551.1 224.31 599.07 306.72"/><polygon class="cls-3" points="633.25 637.87 537.3 637.87 471.85 525.34 423.88 442.93 423.88 442.87 391.85 387.93 199.06 719.14 103.17 719.14 343.94 305.58 391.91 223.17 439.83 305.52 471.85 360.46 519.83 442.87 519.83 442.93 633.25 637.87"/></g></g></svg>